<?xml version="1.0" encoding="UTF-8"?>
<svg xmlns="http://www.w3.org/2000/svg" xmlns:xlink="http://www.w3.org/1999/xlink" viewBox="0 0 480 480" width="480px" height="480px">
<g id="surface36160277">
<path style=" stroke:none;fill-rule:evenodd;fill:rgb(55.686277%,52.941179%,47.843137%);fill-opacity:1;" d="M 229.03125 32.859375 C 235.820312 29.050781 244.179688 29.050781 250.960938 32.859375 C 284.511719 51.691406 385.46875 108.371094 419.03125 127.199219 C 425.820312 131 430 138.039062 430 145.660156 C 430 183.320312 430 296.667969 430 334.328125 C 430 341.949219 425.820312 348.988281 419.03125 352.800781 C 385.480469 371.628906 284.519531 428.308594 250.960938 447.140625 C 244.167969 450.949219 235.808594 450.949219 229.03125 447.140625 C 195.480469 428.308594 94.519531 371.628906 60.960938 352.800781 C 54.179688 348.988281 50 341.960938 50 334.339844 C 50 296.679688 50 183.328125 50 145.667969 C 50 138.050781 54.179688 131.011719 60.96875 127.199219 C 94.511719 108.371094 195.488281 51.691406 229.03125 32.859375 Z M 229.03125 32.859375 "/>
<path style=" stroke:none;fill-rule:nonzero;fill:rgb(8.235294%,8.235294%,8.235294%);fill-opacity:1;" d="M 239.871094 462.210938 C 229.019531 462.210938 218.160156 459.691406 208.21875 454.640625 C 186.019531 443.371094 157.039062 425.648438 129.011719 408.507812 C 109.28125 396.449219 90.648438 385.050781 76.039062 376.941406 C 53.808594 364.578125 40 341.128906 40 315.71875 L 40 166.269531 C 40 140.371094 54.171875 116.71875 76.988281 104.539062 C 114.320312 84.648438 174.160156 52.199219 205.769531 34.441406 C 226.871094 22.601562 253.101562 22.601562 274.210938 34.441406 C 309.96875 54.511719 377.898438 95.078125 416.730469 119.570312 C 431.300781 128.738281 440 144.53125 440 161.820312 L 440 320 C 440 344 431.410156 360.480469 414.46875 368.949219 C 405.03125 374.261719 388.191406 384.710938 368.691406 396.820312 C 338.371094 415.640625 300.628906 439.070312 273.050781 453.871094 C 262.699219 459.417969 251.28125 462.210938 239.871094 462.210938 Z M 215.558594 51.878906 C 183.839844 69.699219 123.820312 102.261719 86.398438 122.199219 C 70.121094 130.878906 60 147.761719 60 166.269531 L 60 315.71875 C 60 333.859375 69.871094 350.621094 85.761719 359.449219 C 100.738281 367.769531 119.539062 379.261719 139.449219 391.441406 C 167.148438 408.371094 195.789062 425.890625 217.28125 436.800781 C 231.859375 444.191406 249.160156 443.96875 263.589844 436.238281 C 290.621094 421.730469 328.058594 398.488281 358.148438 379.808594 C 377.851562 367.578125 394.859375 357.019531 405.109375 351.269531 C 418.351562 344.640625 420 331.089844 420 320 L 420 161.820312 C 420 151.449219 414.789062 141.988281 406.078125 136.5 C 367.460938 112.148438 299.949219 71.828125 264.429688 51.890625 C 249.128906 43.308594 230.859375 43.308594 215.558594 51.878906 Z M 215.558594 51.878906 "/>
<path style=" stroke:none;fill-rule:nonzero;fill:rgb(8.235294%,8.235294%,8.235294%);fill-opacity:1;" d="M 229.769531 416.539062 L 229.199219 282.160156 C 229.089844 256.21875 243.328125 232.351562 266.210938 220.121094 L 386.308594 155.960938 C 406.289062 145.28125 430.449219 159.761719 430.449219 182.417969 L 430.449219 329.71875 C 430.449219 340.128906 425.050781 349.800781 416.191406 355.261719 L 275.511719 441.941406 C 255.570312 454.238281 229.871094 439.960938 229.769531 416.539062 Z M 229.769531 416.539062 "/>
<path style=" stroke:none;fill-rule:nonzero;fill:rgb(55.686277%,52.941179%,47.843137%);fill-opacity:1;" d="M 287.988281 262.738281 C 289.21875 262.109375 290.238281 262.878906 290.261719 264.5 L 290.390625 277.699219 C 295.910156 275.511719 300.710938 274.917969 305.058594 275.929688 C 306.011719 276.167969 306.417969 277.460938 306.039062 278.988281 L 303.128906 290.679688 C 302.890625 291.570312 302.410156 292.460938 301.808594 293.011719 C 301.550781 293.261719 301.289062 293.449219 301.039062 293.578125 C 300.640625 293.78125 300.261719 293.839844 299.898438 293.769531 C 297.910156 293.320312 293.191406 292.289062 285.769531 296.050781 C 277.988281 300 275.261719 306.761719 275.308594 311.78125 C 275.378906 317.789062 278.460938 319.609375 289.078125 319.800781 C 303.238281 320.03125 309.351562 326.230469 309.5 340.46875 C 309.660156 354.488281 302.167969 369.519531 290.738281 378.730469 L 290.988281 391.808594 C 291 393.378906 289.988281 395.191406 288.738281 395.808594 L 280.988281 400.257812 C 279.761719 400.890625 278.738281 400.121094 278.71875 398.539062 L 278.589844 385.679688 C 271.949219 388.441406 265.25 389.101562 260.960938 387.378906 C 260.140625 387.058594 259.789062 385.859375 260.121094 384.5 L 262.917969 372.691406 C 263.140625 371.769531 263.628906 370.828125 264.300781 370.230469 C 264.53125 370 264.78125 369.828125 265.019531 369.699219 C 265.460938 369.480469 265.890625 369.429688 266.261719 369.570312 C 270.878906 371.121094 276.789062 370.390625 282.480469 367.511719 C 289.699219 363.859375 294.539062 356.488281 294.460938 349.167969 C 294.390625 342.53125 290.800781 339.78125 282.050781 339.710938 C 270.917969 339.730469 260.539062 337.550781 260.371094 321.160156 C 260.230469 307.660156 267.25 293.628906 278.359375 284.75 L 278.230469 271.558594 C 278.21875 269.941406 279.210938 268.160156 280.480469 267.511719 Z M 287.988281 262.738281 "/>
<path style=" stroke:none;fill-rule:nonzero;fill:rgb(30.19608%,66.274512%,14.509805%);fill-opacity:1;" d="M 372.261719 348.570312 L 335.21875 370.417969 C 334.128906 371.03125 332.78125 370.230469 332.78125 368.988281 L 332.78125 356.46875 C 332.78125 355.339844 333.390625 354.300781 334.378906 353.738281 L 371.417969 331.890625 C 372.53125 331.28125 373.878906 332.078125 373.878906 333.339844 L 373.878906 345.820312 C 373.878906 346.96875 373.261719 348.011719 372.261719 348.570312 "/>
</g>
</svg>
