<?xml version="1.0" encoding="UTF-8"?>
<svg xmlns="http://www.w3.org/2000/svg" xmlns:xlink="http://www.w3.org/1999/xlink" viewBox="0 0 480 480" width="480px" height="480px">
<g id="surface36153326">
<path style=" stroke:none;fill-rule:nonzero;fill:rgb(55.29412%,52.549022%,47.843137%);fill-opacity:1;" d="M 62.800781 313.199219 C 54.789062 306.898438 46.25 300.871094 40.421875 292.371094 C 28.140625 277.378906 18.691406 260.019531 12.21875 241.78125 C 8.308594 229.917969 6.980469 217.199219 1.941406 205.800781 C -3.328125 197.519531 2.839844 188.46875 11.910156 185.828125 C 15.949219 185.050781 23.050781 181.25 14.480469 183.96875 C 6.800781 189.609375 6.050781 178.851562 13.929688 178.167969 C 19.308594 177.460938 21.289062 173.050781 19.449219 169.089844 C 13.679688 165.328125 33.449219 161.191406 23.5 155.570312 C 13.140625 144.390625 38 142.238281 31.859375 154.929688 C 30.390625 164.691406 49.230469 153.140625 44.859375 164.417969 C 49.300781 169.828125 61.5 165.648438 61.191406 173.25 C 67.660156 173.691406 69.878906 179.140625 75.960938 179.558594 C 82.261719 182.398438 93.671875 184.640625 95.808594 191.738281 C 89.558594 196.691406 75.101562 181.519531 74.398438 195.210938 C 76.289062 215.429688 75.808594 236.269531 83.210938 255.519531 C 86.710938 267.179688 95.191406 276.359375 102.859375 285.441406 C 110.191406 294.328125 120.121094 300.601562 130.238281 305.871094 C 139.121094 310.058594 148.691406 312.828125 158.371094 314.578125 C 162.289062 311.578125 169.21875 300.417969 175.351562 305.121094 C 175.640625 310.410156 163.199219 316.167969 174.761719 315.589844 C 181.550781 313.539062 186.261719 320.839844 191.859375 314.261719 C 197.011719 320.359375 213.28125 310.359375 209.609375 322.839844 C 204.648438 326.039062 197.417969 324.109375 192.460938 328.511719 C 184.269531 324.417969 177.75 332.167969 168.691406 331.191406 C 158.621094 332.988281 148.378906 333.71875 138.179688 333.738281 C 121.441406 332.417969 104.339844 331.859375 88.410156 326.03125 C 79.441406 323.417969 70.679688 318.308594 62.800781 313.199219 Z M 76.941406 319.320312 C 85.699219 323.109375 94.269531 327.101562 103.871094 328.308594 C 119.101562 330.429688 134.828125 333.691406 150.121094 330.710938 C 143.199219 327.589844 136.050781 331.929688 129.148438 328.480469 C 120.878906 330.261719 112.011719 328.03125 103.609375 326.929688 C 94.050781 322.667969 83.738281 319.75 74.789062 314.21875 C 63.609375 310.140625 80.570312 319.460938 83.589844 320.210938 C 90.578125 324.179688 75.898438 318.179688 73.828125 316.53125 C 67.96875 313.25 67.230469 313.929688 73.25 317.269531 C 74.46875 317.96875 75.671875 318.71875 76.941406 319.320312 Z M 60.269531 307.539062 C 68.761719 310.679688 60.230469 301.570312 56.339844 302.101562 C 54.621094 299.109375 49.75 297.21875 53.179688 295.609375 C 47.011719 297.75 46.71875 287.46875 43.820312 288.941406 C 37.289062 286.878906 41.28125 279.578125 33.511719 275.101562 C 32.800781 270.378906 25.789062 266.28125 23.550781 259.148438 C 22.558594 255.5 15.628906 245.03125 19.890625 254.78125 C 23.519531 264.167969 29.898438 272.199219 35.210938 280.230469 C 39.328125 287.871094 44.210938 295.859375 51.71875 300.628906 C 54.25 303.058594 56.691406 306.78125 60.269531 307.539062 Z M 97.671875 323.328125 C 101.148438 325.519531 117.96875 328.140625 107.441406 324.230469 C 105.671875 324.601562 87.898438 319.199219 97.671875 323.328125 Z M 59.238281 292.128906 C 63.320312 295.261719 75.691406 292.53125 65.488281 290.261719 C 60.839844 287.78125 50.378906 286.089844 57.511719 291.75 Z M 78.988281 302.589844 C 88.96875 305.410156 70.601562 296.28125 76.53125 301.550781 L 77.839844 302.140625 Z M 96.269531 312.578125 C 105.71875 312.667969 87.738281 311.28125 96.269531 312.578125 Z M 79.070312 297.308594 C 86.320312 298.238281 70.449219 292.378906 77.480469 296.789062 Z M 104.261719 312.789062 C 111.03125 308.738281 108.800781 322.261719 115.738281 313.929688 C 122.589844 308.929688 109.820312 320.109375 118.269531 314.820312 C 124.378906 310.738281 133.390625 316.761719 139.089844 318.71875 C 143.191406 318.519531 147.167969 322.261719 151.371094 319.980469 C 159.449219 317.800781 135.558594 316.75 141.820312 312.890625 C 134.417969 315.039062 128.960938 310.320312 125.320312 305.578125 C 117.019531 303.660156 107.429688 299.417969 103.289062 292.078125 C 101.601562 289.320312 105.730469 292.46875 101.828125 287.960938 C 96.828125 283.511719 94.328125 278.460938 90.980469 273.058594 C 86.96875 270.917969 86.5 264.621094 86.101562 272.851562 C 86.128906 267.660156 81.261719 264.167969 80.070312 265.621094 C 80.050781 260.621094 85.289062 263.128906 81.621094 259.429688 C 80.828125 254.25 78.230469 248.851562 77.449219 243 C 76.238281 240.179688 77.28125 234.140625 73.308594 240.519531 C 71.859375 247.269531 72.828125 232.230469 75.078125 237.191406 C 78.03125 232.128906 74.019531 232.730469 73.859375 233.429688 C 75.78125 229.160156 75.078125 223.109375 73.359375 225.417969 C 74.378906 220.898438 74.980469 208.769531 71.828125 210.917969 C 73.738281 206.191406 75.449219 189.269531 67.160156 195.71875 C 63.800781 195.769531 57.980469 196.941406 55.21875 198.308594 C 63.851562 203.070312 54.351562 200.03125 50.839844 199.269531 C 50.378906 203.667969 46.898438 201.769531 42.558594 201.808594 C 49.5 202.667969 39.179688 208.910156 35.199219 206.488281 C 30 208.960938 39.640625 215.128906 35.28125 217.039062 C 35.820312 219.917969 27.359375 216 28.019531 222.640625 C 23 220.53125 27.328125 230.519531 29.839844 227.140625 C 38.378906 229.449219 35.851562 234.71875 36.070312 239.730469 C 34.679688 242.648438 29.199219 232.871094 34.851562 233.328125 C 30.390625 226.089844 29.921875 230.710938 26.21875 234.078125 C 25.359375 234.320312 35.671875 238.871094 29.199219 241.109375 C 34.890625 241.988281 35.050781 246.96875 36.210938 250.121094 C 39.628906 253.679688 38.929688 246.191406 43.019531 250.46875 C 40.429688 246.648438 29.300781 239.71875 38.261719 241.941406 C 38.210938 238.101562 36.640625 235 39.378906 235.078125 C 42.101562 230.160156 36.53125 247.21875 42.660156 240.960938 C 44.359375 240.21875 44.78125 236.03125 47.828125 241.359375 C 52.261719 245.71875 49.429688 248.871094 43.179688 244.878906 C 44.300781 248.667969 51.539062 250.03125 50.179688 255.960938 C 51.621094 261.179688 53.640625 259.25 55.398438 258.949219 C 56.78125 264.019531 57.558594 260.289062 57.628906 257.878906 C 63.949219 259.230469 62.46875 262.96875 64.449219 265.578125 C 68.800781 267.550781 58.21875 252.261719 65.691406 260.980469 C 73.550781 268.078125 68.640625 271.039062 61.578125 269.910156 C 66.050781 269.550781 67.488281 275.949219 73.070312 275.71875 C 78.160156 278.140625 81.609375 287.449219 72.828125 283.578125 C 69.78125 280.828125 59.011719 277.449219 67.808594 282.667969 C 75.941406 286.441406 82.398438 288.691406 90.238281 293.410156 C 95.851562 297.417969 98.28125 302.011719 100.398438 302.910156 C 95.679688 305.160156 86.179688 301.109375 93.238281 299.871094 C 88.839844 299.070312 83.890625 296.839844 88.109375 302.328125 C 91.691406 305.320312 100.800781 305 102.441406 305.339844 C 101.058594 308.390625 98.679688 308.628906 102.5 308.871094 C 98.238281 311.148438 103.871094 311.5 104.261719 312.789062 Z M 95.550781 288.199219 C 92.960938 285.488281 92.289062 280.417969 95.089844 284.828125 C 96.53125 285.410156 99.691406 293.128906 95.550781 288.199219 Z M 78.949219 260.851562 C 75.859375 253.929688 81.140625 257.070312 79.628906 261.980469 Z M 50.519531 241.898438 C 49.140625 239.628906 46.859375 232.96875 47.589844 230.941406 C 48.261719 234.25 54.628906 245.191406 50.71875 235.46875 C 46.398438 227.320312 55.890625 238.109375 56.871094 240.148438 C 57.320312 242.167969 54.199219 239.601562 56.320312 244.339844 C 52.460938 238.941406 54.039062 247.308594 50.519531 241.898438 Z M 36.179688 229.851562 C 32.910156 226.601562 30.539062 223.601562 36.328125 227.828125 C 38.558594 227.917969 31.371094 221.019531 36.871094 225.640625 C 42.648438 226.699219 39.730469 235.121094 36.179688 229.851562 Z M 38.140625 224.871094 C 28.628906 216.410156 50.089844 229.289062 39.691406 226.441406 Z M 65.378906 240.699219 C 61.269531 238.230469 64.289062 223.328125 65.691406 233.519531 C 69.691406 232.230469 65.46875 238.78125 68.449219 238.71875 C 67.988281 242.859375 66.648438 244.351562 65.378906 240.699219 Z M 40.011719 222.089844 C 33.898438 213.660156 57.761719 230.609375 43.921875 224.230469 C 42.46875 223.851562 40.730469 223.71875 40.011719 222.089844 Z M 59.410156 232.378906 C 58.828125 225.28125 60.699219 233.550781 59.410156 232.378906 Z M 40.941406 218.878906 C 44.570312 218.101562 55.980469 225.261719 45.5 220.917969 C 44.339844 219.628906 41.859375 220.210938 40.941406 218.878906 Z M 72.121094 234.410156 C 72.511719 227.148438 74.289062 230.078125 72.128906 235.449219 Z M 43.648438 216.351562 C 45.128906 214.179688 39.71875 206.539062 44.429688 213.609375 C 46.460938 215.230469 50.320312 216.320312 46.910156 217 C 52.261719 221.71875 45.601562 218.28125 43.648438 216.351562 Z M 64.558594 216.929688 C 64.101562 214.128906 66.128906 220.449219 64.558594 216.929688 Z M 67.308594 212.460938 C 65.421875 209.128906 69.691406 197.800781 70.171875 204.828125 C 68.179688 210.300781 69.601562 213.371094 70.980469 206.019531 C 73.550781 200.25 70.429688 217.429688 67.308594 212.460938 Z M 75.128906 293.460938 C 80.53125 294.851562 80.511719 292.621094 75.621094 291.960938 C 72.988281 289.519531 64.699219 286.917969 72.121094 291.660156 C 72.621094 292.898438 74.171875 292.871094 75.128906 293.460938 Z M 55.941406 280.71875 C 58.921875 282.941406 67.148438 287.011719 60.179688 281.570312 C 62.53125 278.839844 55.679688 277.378906 57.949219 275.558594 C 52.171875 272.019531 53.390625 272.339844 57.441406 272.449219 C 50.488281 269.339844 58.441406 269.578125 58.070312 267.988281 C 55.390625 267.460938 44.761719 263.269531 51.019531 268.328125 C 44.660156 265.089844 49.511719 269.539062 47.578125 269.070312 C 41.078125 267.300781 53.371094 274.019531 46.550781 272.351562 C 50.28125 275.300781 56.589844 279.917969 48.128906 275.480469 C 47.011719 277.070312 54.179688 279.5 55.941406 280.71875 Z M 123.46875 320.308594 C 126.320312 317.550781 123.589844 324.710938 128.191406 319.628906 C 128.238281 316 128.050781 313.851562 122.898438 318.261719 C 121.480469 319.058594 120.839844 322.410156 123.46875 320.308594 Z M 76.789062 290.339844 C 79.960938 293.160156 91.351562 292.410156 80.640625 290.691406 C 79.050781 288.351562 70.558594 288.910156 76.789062 290.339844 Z M 131.601562 323.050781 C 137 317.328125 126.359375 323.390625 131.601562 323.050781 Z M 24.558594 255.261719 C 19.949219 248.691406 21.699219 245.730469 17.25 240.371094 C 16.410156 236.269531 9.628906 226.949219 13.738281 236.820312 C 17.511719 242.589844 18.628906 251.519531 24.558594 255.261719 Z M 135.910156 322.179688 C 140.730469 319.070312 134.800781 319.550781 135.039062 322.46875 Z M 143.640625 324.28125 C 149.820312 319.820312 139.898438 323.429688 142.339844 325.121094 Z M 40.011719 258.21875 C 44.539062 259.230469 58.109375 269.371094 50.101562 258.917969 C 46 257.710938 48.460938 247.691406 44.28125 249.460938 C 47.089844 254.148438 46.589844 256.140625 40.699219 253.191406 C 33.289062 249.570312 36.539062 254.980469 37.988281 256.46875 C 36 256.917969 40.589844 258.191406 40.011719 258.21875 Z M 19.378906 241.929688 C 20.191406 238.578125 11.921875 223.480469 15.46875 234.371094 C 16.75 236.648438 16.621094 240.96875 19.378906 241.929688 Z M 112.738281 297.980469 C 111.789062 295.550781 108.988281 297.917969 112.738281 297.980469 Z M 161.03125 320.121094 C 165.511719 319.210938 175.71875 322.398438 177.371094 318.929688 C 171.929688 318.800781 158.539062 315.089844 157.910156 319.808594 L 159.101562 320 Z M 21.441406 222.667969 C 25.960938 220.890625 13.210938 219 20.519531 222.328125 Z M 7.328125 206.878906 C 6.511719 202.199219 6.621094 193.980469 14.441406 196.761719 C 4.011719 198.828125 21.660156 209.71875 19.429688 201.121094 C 23.808594 201.328125 28.011719 198.53125 25.710938 202.789062 C 34.351562 201.839844 40.339844 194.339844 48.679688 195.390625 C 55.179688 194.53125 62.289062 193.878906 69.289062 191.261719 C 75.050781 190.851562 80.589844 184.640625 77.441406 180.96875 C 69.589844 180.308594 61.359375 181.289062 52.679688 183.011719 C 43.058594 185.011719 34.320312 188.808594 24.621094 190.441406 C 15.160156 191.710938 26.519531 193.941406 23.808594 194.441406 C 18.871094 196.148438 29.699219 197.308594 23.171875 199.109375 C 19.140625 198.339844 14.941406 196.960938 16.660156 192.710938 C 7.601562 193.890625 -0.371094 197.648438 6.789062 206.871094 Z M 29.171875 195.761719 C 31.289062 187.929688 40.550781 202.199219 32.648438 196.800781 C 31.710938 196.089844 30.148438 195.519531 29.171875 195.761719 Z M 33.46875 192.03125 C 33.75 188.429688 42.378906 193.941406 34.890625 193.328125 Z M 40.160156 188.96875 C 43.398438 185.078125 58.5 186.488281 47.449219 188.589844 C 44.488281 186.359375 42.21875 189.910156 40.160156 188.96875 Z M 65.46875 185.898438 C 67.511719 180.539062 73.410156 183.75 66.421875 184.820312 C 66.570312 185.398438 66.210938 187.589844 65.46875 185.898438 Z M 20.328125 214.320312 C 26.441406 210.578125 13.839844 211.070312 20.328125 214.320312 Z M 196.980469 320.191406 C 201.859375 320.210938 211.769531 318.667969 201.148438 318.679688 C 199.480469 318.941406 191.441406 318.890625 196.980469 320.191406 Z M 28.820312 213.378906 C 32.769531 213.109375 35 209.019531 28.058594 209.261719 C 17.300781 208.148438 37.558594 212.949219 26.679688 211.570312 C 25.210938 212.539062 28.730469 213.640625 28.820312 213.378906 Z M 23.289062 182.167969 C 30.339844 179.769531 39.980469 177.078125 43.308594 183.351562 C 39.921875 179.269531 41.941406 175.261719 45.140625 181.21875 C 49.660156 187.25 51.929688 178.480469 48.988281 176.449219 C 52.339844 180.621094 56.160156 182.589844 51.238281 176.710938 C 56.589844 170.28125 40.53125 177.550781 36.878906 177.480469 C 35.109375 178.28125 18.738281 181.667969 23.289062 182.167969 Z M 27.421875 174.261719 C 31.441406 171.230469 41.328125 176.070312 34.980469 171.238281 C 34.359375 170.699219 21.089844 174.898438 27.421875 174.261719 Z M 42.078125 174.871094 C 46.789062 174.988281 40.050781 168.550781 45.660156 171.46875 C 44.738281 168.460938 39.128906 167.898438 36.390625 166.699219 C 34.828125 169.441406 39.539062 174.898438 42.078125 174.871094 Z M 35.980469 162.988281 C 43.558594 161.980469 34.050781 159.71875 34.449219 162.910156 Z M 24.789062 154.238281 C 19.449219 147.269531 34.828125 155.410156 29.410156 148.109375 C 24.839844 144.480469 20.460938 152.210938 24.789062 154.238281 Z M 93.320312 191.148438 C 95.769531 186.808594 83.210938 185.300781 91.671875 189.609375 C 92.441406 189.871094 92.269531 191.449219 93.320312 191.148438 Z M 93.320312 191.148438 "/>
<path style=" stroke:none;fill-rule:nonzero;fill:rgb(55.29412%,52.549022%,47.843137%);fill-opacity:1;" d="M 208.910156 161.210938 C 208.03125 164.660156 207.488281 170.460938 207.289062 178.601562 C 207.289062 180.199219 206.570312 181 205.128906 181 C 203.691406 181 202.679688 180.300781 202.121094 178.910156 C 200.570312 175.148438 199.109375 172.519531 197.710938 171.03125 C 196.058594 169.28125 193.871094 168.21875 191.140625 167.859375 C 188.199219 167.398438 180.890625 167.160156 169.191406 167.160156 C 166.511719 167.160156 164.761719 167.441406 163.929688 168.011719 C 163.410156 168.371094 163.160156 169.140625 163.160156 170.328125 L 163.160156 205.351562 C 163.160156 206.539062 163.910156 207.101562 165.398438 207.050781 C 169.988281 207 176.628906 206.691406 185.339844 206.121094 C 187.039062 205.910156 188.191406 205.359375 188.78125 204.460938 C 189.371094 203.558594 189.949219 201.230469 190.519531 197.460938 C 190.878906 195.398438 192.089844 194.601562 194.148438 195.058594 C 195.898438 195.417969 196.648438 196.21875 196.390625 197.460938 C 194.949219 204.46875 194.480469 213.589844 195 224.820312 C 195.050781 226.160156 194.199219 226.878906 192.449219 226.980469 C 191.011719 227.128906 190.109375 226.359375 189.738281 224.660156 C 188.398438 218.21875 185.910156 214.78125 182.28125 214.339844 C 178.648438 213.898438 172.730469 213.679688 164.539062 213.679688 C 163.609375 213.679688 163.148438 214.019531 163.148438 214.679688 L 163.148438 249.460938 C 163.148438 252.039062 164.101562 253.789062 166.011719 254.71875 C 167.5 255.488281 170.730469 256.191406 175.667969 256.808594 C 178.191406 257.070312 179.300781 258.179688 178.988281 260.128906 C 178.679688 261.828125 176.410156 262.5 172.191406 262.140625 C 159.980469 261.160156 149.898438 261.210938 141.96875 262.289062 C 139.75 262.601562 138.648438 261.699219 138.648438 259.578125 C 138.648438 258.238281 139.761719 257.46875 141.96875 257.261719 C 147.019531 256.691406 149.550781 252.261719 149.550781 243.960938 L 149.550781 177.789062 C 149.550781 174.390625 148.941406 171.769531 147.730469 169.941406 C 146.519531 168.109375 144.261719 166.449219 140.96875 164.949219 C 138.910156 164.019531 138.140625 162.761719 138.648438 161.160156 C 138.910156 160.179688 139.320312 159.640625 139.890625 159.539062 C 140.410156 159.390625 141.769531 159.488281 143.988281 159.851562 C 147.238281 160.371094 154.890625 160.621094 166.949219 160.621094 C 181.167969 160.621094 193.460938 160.308594 203.820312 159.691406 C 207.269531 159.480469 209 159.769531 209 160.539062 C 208.980469 160.800781 208.960938 161 208.910156 161.210938 Z M 208.910156 161.210938 "/>
<path style=" stroke:none;fill-rule:nonzero;fill:rgb(55.29412%,52.549022%,47.843137%);fill-opacity:1;" d="M 259.148438 259.449219 C 259.148438 261.511719 257.988281 262.410156 255.667969 262.160156 C 248.558594 261.488281 239.75 261.589844 229.230469 262.46875 C 227.121094 262.679688 225.820312 262.621094 225.328125 262.320312 C 224.839844 262.011719 224.601562 261.160156 224.601562 259.769531 C 224.601562 258.53125 226 257.488281 228.808594 256.640625 C 231.621094 255.789062 233.019531 253.25 233.019531 249.03125 L 233.019531 179.078125 C 233.019531 174.910156 232.410156 171.839844 231.199219 169.878906 C 229.988281 167.917969 227.859375 166.398438 224.820312 165.320312 C 223.21875 164.75 222.417969 163.949219 222.417969 162.917969 C 222.417969 161.371094 223.578125 160.210938 225.898438 159.441406 C 229.398438 158.308594 233.039062 156.550781 236.800781 154.179688 C 239.890625 152.320312 241.851562 151.398438 242.667969 151.398438 C 244.578125 151.398438 245.53125 152.710938 245.53125 155.339844 C 245.53125 155.128906 245.429688 157.710938 245.21875 163.070312 C 245.070312 168.167969 245.011719 173.199219 245.070312 178.140625 L 245.378906 247.167969 C 245.378906 250.308594 246.148438 252.589844 247.699219 254.011719 C 249.25 255.429688 251.898438 256.371094 255.660156 256.828125 C 257.988281 257.078125 259.148438 257.960938 259.148438 259.449219 Z M 259.148438 259.449219 "/>
<path style=" stroke:none;fill-rule:nonzero;fill:rgb(55.29412%,52.549022%,47.843137%);fill-opacity:1;" d="M 329.640625 254.269531 C 329.640625 255.351562 327.667969 256.988281 323.730469 259.179688 C 319.789062 261.371094 316.628906 262.46875 314.261719 262.46875 C 312.25 262.46875 310.46875 261.488281 308.929688 259.53125 C 307.378906 257.570312 306.300781 256.589844 305.679688 256.589844 C 305.21875 256.589844 302.769531 257.648438 298.339844 259.761719 C 293.910156 261.871094 289.449219 262.929688 284.96875 262.929688 C 280.738281 262.929688 277.210938 261.691406 274.378906 259.21875 C 271.289062 256.488281 269.738281 252.78125 269.738281 248.089844 C 269.738281 239.179688 279.941406 232.789062 300.351562 228.917969 C 303.851562 228.25 305.628906 226.828125 305.679688 224.667969 L 305.828125 219.71875 C 306.140625 211.269531 302.398438 207.039062 294.621094 207.039062 C 292.398438 207.039062 290.300781 209.019531 288.320312 212.988281 C 286.339844 216.960938 283.488281 219.101562 279.78125 219.410156 C 275.550781 219.820312 273.441406 218.039062 273.441406 214.078125 C 273.441406 211.609375 276.578125 208.71875 282.871094 205.417969 C 289.46875 201.96875 295.800781 200.238281 301.878906 200.238281 C 312.339844 200.238281 317.519531 205.210938 317.417969 215.160156 L 317.109375 247.011719 C 317.058594 250.359375 318.480469 252.03125 321.359375 252.03125 C 321.929688 252.03125 323.011719 251.898438 324.609375 251.640625 C 326.210938 251.378906 327.128906 251.25 327.390625 251.25 C 328.898438 251.261719 329.640625 252.261719 329.640625 254.269531 Z M 305.839844 236.648438 C 305.890625 235.359375 305.601562 234.511719 304.949219 234.101562 C 304.308594 233.691406 303.289062 233.609375 301.898438 233.871094 C 289.480469 236.089844 283.269531 240.128906 283.269531 246.011719 C 283.269531 251.941406 286.488281 254.898438 292.929688 254.898438 C 295.511719 254.898438 298.160156 254.410156 300.890625 253.429688 C 304.078125 252.300781 305.679688 250.929688 305.679688 249.328125 Z M 305.839844 236.648438 "/>
<path style=" stroke:none;fill-rule:nonzero;fill:rgb(55.29412%,52.549022%,47.843137%);fill-opacity:1;" d="M 387.308594 245.070312 C 387.308594 250.53125 385.210938 254.871094 381.011719 258.089844 C 376.808594 261.308594 371.078125 262.917969 363.808594 262.917969 C 358.96875 262.917969 354.121094 262.398438 349.28125 261.371094 C 345.109375 260.441406 342.679688 259.589844 342.011719 258.820312 C 341.601562 258.101562 341.390625 254.570312 341.390625 248.230469 C 341.390625 245.5 342.011719 244.078125 343.25 243.980469 C 344.488281 243.828125 345.539062 244.5 346.417969 245.988281 C 350.28125 252.738281 356.519531 256.121094 365.128906 256.121094 C 372.398438 256.121094 376.03125 253.589844 376.03125 248.539062 C 376.03125 246.320312 375.210938 244.46875 373.558594 242.96875 C 371.761719 241.269531 368.25 239.289062 363.050781 237.019531 C 355.53125 233.667969 350.5 230.730469 347.980469 228.210938 C 345.25 225.53125 343.878906 221.917969 343.878906 217.390625 C 343.878906 211.820312 346.019531 207.5 350.300781 204.398438 C 354.269531 201.410156 359.578125 199.917969 366.21875 199.917969 C 370.390625 199.917969 374.210938 200.261719 377.660156 200.917969 C 381.371094 201.589844 383.300781 202.410156 383.460938 203.390625 C 383.871094 206.28125 384.71875 210.449219 386.011719 215.910156 C 386.160156 216.578125 385.441406 217.121094 383.851562 217.53125 C 382.148438 217.890625 381.019531 217.609375 380.449219 216.679688 C 376.378906 210.03125 371.230469 206.710938 364.988281 206.710938 C 357.929688 206.710938 354.398438 208.980469 354.398438 213.511719 C 354.398438 216.039062 355.351562 218.039062 357.261719 219.539062 C 358.960938 220.828125 362.949219 222.839844 369.238281 225.570312 C 375.839844 228.398438 380.320312 230.960938 382.691406 233.21875 C 385.761719 236.191406 387.308594 240.128906 387.308594 245.070312 Z M 387.308594 245.070312 "/>
<path style=" stroke:none;fill-rule:nonzero;fill:rgb(55.29412%,52.549022%,47.843137%);fill-opacity:1;" d="M 476.96875 258.988281 C 476.96875 260.789062 475.757812 261.75 473.339844 261.851562 C 469.730469 261.898438 465.019531 262.160156 459.191406 262.621094 C 456.300781 263.191406 454.238281 262.828125 453.007812 261.539062 C 444.871094 252.78125 437.960938 243.609375 432.289062 234.019531 C 431.828125 233.199219 431.230469 232.78125 430.507812 232.78125 C 429.628906 232.78125 428.109375 233.550781 425.949219 235.101562 C 423.53125 236.441406 422.320312 238.351562 422.320312 240.820312 C 422.320312 242.570312 422.371094 245.101562 422.46875 248.398438 C 422.570312 251.699219 423.398438 253.859375 424.941406 254.890625 C 426.019531 255.609375 428.519531 256.179688 432.441406 256.589844 C 434.859375 256.898438 436.070312 257.800781 436.070312 259.300781 C 436.070312 260.488281 435.878906 261.21875 435.488281 261.5 C 435.101562 261.78125 434.089844 261.851562 432.441406 261.691406 C 427.289062 261.230469 418.578125 261.480469 406.308594 262.460938 C 403.21875 262.71875 401.539062 262.328125 401.289062 261.300781 C 401.191406 260.941406 401.140625 260.417969 401.140625 259.75 C 401.140625 258.148438 402.710938 256.941406 405.859375 256.121094 C 408.691406 255.398438 410.109375 252.070312 410.109375 246.148438 L 410.109375 178.601562 C 410.109375 174.371094 409.699219 171.441406 408.871094 169.789062 C 407.738281 167.679688 405.371094 166.03125 401.757812 164.839844 C 400.058594 164.269531 399.210938 163.46875 399.210938 162.441406 C 399.210938 160.949219 400.417969 159.789062 402.839844 158.960938 C 406.699219 157.667969 410.390625 155.890625 413.890625 153.628906 C 416.71875 151.769531 418.480469 150.851562 419.148438 150.851562 C 421.257812 150.851562 422.320312 152.191406 422.320312 154.871094 C 422.320312 154.511719 422.289062 157.058594 422.238281 162.519531 C 422.191406 166.28125 422.160156 171.328125 422.160156 177.667969 L 422.308594 226.058594 C 422.308594 227.398438 422.667969 228.070312 423.390625 228.070312 C 424.160156 228.070312 425.351562 227.398438 426.949219 226.058594 C 431.230469 222.710938 436.480469 218.328125 442.71875 212.917969 C 443.960938 211.628906 444.578125 210.601562 444.578125 209.828125 C 444.578125 208.441406 442.488281 207.460938 438.320312 206.890625 C 436.519531 206.679688 435.667969 205.679688 435.769531 203.878906 C 435.917969 202.078125 436.828125 201.300781 438.480469 201.558594 C 442.191406 202.078125 447.601562 202.359375 454.710938 202.410156 C 459.660156 202.460938 464.578125 202.488281 469.46875 202.488281 C 471.070312 202.539062 471.871094 203.488281 471.871094 205.351562 C 471.871094 207.101562 470.609375 208.058594 468.078125 208.210938 C 464.109375 208.359375 460.378906 209.269531 456.871094 210.917969 C 451.96875 213.140625 446.738281 217.03125 441.179688 222.589844 C 440.769531 222.898438 440.558594 223.289062 440.558594 223.75 C 440.558594 224.46875 441.441406 226.199219 443.191406 228.929688 C 449.628906 238.71875 455.710938 246.121094 461.429688 251.109375 C 465.089844 254.25 468.519531 255.828125 471.710938 255.828125 C 474.078125 255.828125 475.550781 256 476.121094 256.328125 C 476.691406 256.660156 476.96875 257.550781 476.96875 258.988281 Z M 476.96875 258.988281 "/>
</g>
</svg>
