<?xml version="1.0" encoding="UTF-8"?>
<svg xmlns="http://www.w3.org/2000/svg" xmlns:xlink="http://www.w3.org/1999/xlink" viewBox="0 0 480 480" width="480px" height="480px">
<g id="surface128335709">
<path style=" stroke:none;fill-rule:nonzero;fill:rgb(55.686277%,52.941179%,47.843137%);fill-opacity:1;" d="M 60 110 C 60 87.910156 77.910156 70 100 70 L 370 70 C 392.089844 70 410 87.910156 410 110 L 410 380 C 410 402.089844 392.089844 420 370 420 L 100 420 C 77.910156 420 60 402.089844 60 380 Z M 60 110 "/>
<path style=" stroke:none;fill-rule:nonzero;fill:rgb(55.686277%,52.941179%,47.843137%);fill-opacity:1;" d="M 410 110 C 410 87.910156 392.089844 70 370 70 L 368.851562 70 L 295.789062 137.449219 L 264.148438 105.851562 L 250.011719 91.730469 L 235.878906 105.851562 L 205.859375 135.851562 L 192.621094 149.078125 L 204.949219 163.167969 L 274.96875 243.167969 L 288.078125 258.148438 L 303.121094 245.109375 L 410 152.46875 Z M 410 110 "/>
<path style=" stroke:none;fill-rule:nonzero;fill:rgb(9.019608%,9.019608%,9.019608%);fill-opacity:1;" d="M 166.359375 351.898438 C 166.359375 347.109375 164.621094 343.359375 161.140625 340.679688 C 157.660156 337.988281 151.539062 335.21875 142.789062 332.351562 C 134.039062 329.46875 126.878906 326.710938 121.320312 324.019531 C 103.25 315.351562 94.210938 303.429688 94.210938 288.269531 C 94.210938 280.71875 96.460938 274.070312 100.96875 268.289062 C 105.480469 262.511719 111.839844 258.019531 120.078125 254.820312 C 128.320312 251.609375 137.578125 250 147.871094 250 C 157.890625 250 166.890625 251.75 174.839844 255.238281 C 182.800781 258.730469 188.96875 263.710938 193.378906 270.160156 C 197.789062 276.621094 200 281.710938 200 290 L 166.460938 290 C 166.460938 284.449219 164.71875 282.441406 161.238281 279.378906 C 157.761719 276.320312 153.050781 274.800781 147.109375 274.800781 C 141.109375 274.800781 136.371094 276.089844 132.878906 278.679688 C 129.398438 281.28125 127.660156 284.558594 127.660156 288.550781 C 127.660156 292.050781 129.578125 295.21875 133.410156 298.039062 C 137.238281 300.878906 143.980469 303.820312 153.628906 306.851562 C 163.269531 309.871094 171.199219 313.140625 177.390625 316.628906 C 192.46875 325.121094 200 336.820312 200 351.730469 C 200 363.628906 195.398438 373 186.210938 379.800781 C 176.988281 386.601562 164.378906 390 148.351562 390 C 137.050781 390 126.808594 388.011719 117.640625 384.058594 C 108.480469 380.101562 101.578125 374.667969 96.949219 367.769531 C 92.320312 360.871094 90 348.980469 90 340 L 123.71875 340 C 123.71875 347.300781 125.660156 356.648438 129.511719 360.101562 C 133.371094 363.570312 139.660156 365.300781 148.339844 365.300781 C 153.890625 365.300781 158.289062 364.140625 161.519531 361.789062 C 164.75 359.449219 166.359375 356.140625 166.359375 351.898438 Z M 269.488281 390 C 254.738281 390 242.789062 385.589844 233.679688 376.761719 C 224.570312 367.941406 220 356.46875 220 342.328125 L 220 339.828125 C 220 329.960938 221.808594 321.269531 225.460938 313.71875 C 229.101562 306.160156 234.417969 300.328125 241.410156 296.199219 C 248.378906 292.070312 256.679688 290 266.28125 290 C 279.789062 290 290.449219 294.210938 298.269531 302.609375 C 306.089844 311.019531 310 322.730469 310 337.769531 L 310 350 L 250.46875 350 C 251.539062 355.398438 253.878906 359.101562 257.488281 362.179688 C 261.089844 365.28125 265.789062 366.820312 271.53125 366.820312 C 280.988281 366.820312 288.398438 363.5 293.738281 356.828125 L 307.429688 373.058594 C 303.691406 378.238281 298.410156 382.351562 291.570312 385.398438 C 284.730469 388.46875 277.371094 390 269.488281 390 Z M 266.109375 313.167969 C 257.351562 313.167969 252.128906 318.351562 250.480469 330 L 280.691406 330 L 280.691406 328.320312 C 280.808594 323.511719 279.589844 319.78125 277.050781 317.140625 C 274.511719 314.5 270.851562 313.167969 266.109375 313.167969 Z M 266.109375 313.167969 "/>
<path style=" stroke:none;fill-rule:nonzero;fill:rgb(40.000001%,73.333335%,41.568628%);fill-opacity:1;" d="M 220 150 L 250.019531 120 L 295.25 165.179688 L 420 50 L 440 100 L 290.019531 230 Z M 220 150 "/>
</g>
</svg>
