<?xml version="1.0" encoding="UTF-8"?>
<svg xmlns="http://www.w3.org/2000/svg" xmlns:xlink="http://www.w3.org/1999/xlink" viewBox="0 0 480 480" width="480px" height="480px">
<g id="surface36157153">
<path style=" stroke:none;fill-rule:nonzero;fill:rgb(55.29412%,52.549022%,47.843137%);fill-opacity:1;" d="M 410 50 L 70 50 L 100 390 L 240 430 L 380 390 Z M 410 50 "/>
<path style=" stroke:none;fill-rule:nonzero;fill:rgb(55.29412%,52.549022%,47.843137%);fill-opacity:1;" d="M 240 80 L 240 399 L 352 367 L 377 80 Z M 240 80 "/>
<path style=" stroke:none;fill-rule:nonzero;fill:rgb(8.235294%,8.235294%,8.235294%);fill-opacity:1;" d="M 331 130 L 240 130 L 240 170 L 289 170 L 286 210 L 240 210 L 240 250 L 284 250 L 281 295 L 240 309 L 240 351 L 319 325 L 326 210 Z M 331 130 "/>
<path style=" stroke:none;fill-rule:nonzero;fill:rgb(8.235294%,8.235294%,8.235294%);fill-opacity:1;" d="M 240 130 L 240 170 L 151 170 L 148 130 Z M 194 210 L 196 250 L 240 250 L 240 210 Z M 198 270 L 158 270 L 161 325 L 240 351 L 240 309 L 199 295 Z M 198 270 "/>
</g>
</svg>
