<?xml version="1.0" encoding="UTF-8"?>
<svg xmlns="http://www.w3.org/2000/svg" xmlns:xlink="http://www.w3.org/1999/xlink" viewBox="0 0 480 480" width="480px" height="480px">
<g id="surface36152515">
<path style=" stroke:none;fill-rule:nonzero;fill:rgb(55.29412%,52.549022%,47.843137%);fill-opacity:1;" d="M 410 240 C 410 334 334 410 240 410 C 146 410 70 334 70 240 C 70 146 146 70 240 70 C 334 70 410 146 410 240 Z M 410 240 "/>
<path style=" stroke:none;fill-rule:nonzero;fill:rgb(12.156863%,12.54902%,12.54902%);fill-opacity:1;" d="M 210 410 L 210 355 C 210 352 212 350 215 350 C 218 350 220 352 220 355 L 220 410 L 240 410 L 240 345 C 240 342 242 340 245 340 C 248 340 250 342 250 345 L 250 410 L 270 410 L 270 355 C 270 352 272 350 275 350 C 278 350 280 352 280 355 L 280 410 L 298 410 C 300 407 300 404 300 399 L 300 360 C 300 338 281 308 257 308 L 232 308 C 209 308 189 339 189 360 L 189 399 C 189 403 190 407 191 410 Z M 401 264 C 401 264 388 260 377 260 L 376 260 C 365 260 347 263 347 263 C 346 263 346 263 346 262 C 346 261 346 261 347 261 C 348 261 367 258 378 258 C 389 258 402 262 403 262 C 404 262 404 263 404 264 C 402 263 402 264 401 264 Z M 398 272 C 398 272 384 268 372 268 C 363 268 342 270 341 270 C 340 270 340 270 340 269 C 340 268 340 268 341 268 C 342 268 363 266 372 266 C 385 266 398 270 398 270 C 399 270 399 271 399 272 C 399 271 399 272 398 272 Z M 78 264 C 77 264 77 264 77 263 C 77 262 77 262 78 261 C 86 259 102 256 111 256 C 119 256 146 258 147 258 C 148 258 148 259 148 259 C 148 260 147 260 147 260 C 147 260 120 258 112 258 C 101 260 86 262 78 264 Z M 82 279 C 82 279 81 279 81 278 C 81 277 81 277 81 276 C 82 276 95 268 110 266 C 123 264 150 267 152 267 C 153 267 153 268 153 268 C 153 269 152 269 152 269 C 152 269 124 266 111 268 C 96 271 82 279 82 279 Z M 82 279 "/>
<path style=" stroke:none;fill-rule:nonzero;fill:rgb(12.156863%,12.54902%,12.54902%);fill-opacity:1;" d="M 142 235 C 142 191 188 150 245 150 C 302 150 348 190 348 235 C 348 280 315 310 245 310 C 175 310 142 279 142 235 Z M 142 235 "/>
<path style=" stroke:none;fill-rule:nonzero;fill:rgb(12.156863%,12.54902%,12.54902%);fill-opacity:1;" d="M 286 163 C 286 163 303 140 334 140 C 346 152 338 188 334 198 Z M 204 163 C 204 163 187 140 156 140 C 144 152 152 188 156 198 Z M 201 359 C 201 359 178 359 173 359 C 161 359 150 354 145 344 C 139 333 134 321 119 311 C 116 309 118 307 123 307 C 128 308 137 309 144 318 C 151 327 159 338 172 338 C 185 338 199 338 207 329 Z M 201 359 "/>
<path style=" stroke:none;fill-rule:nonzero;fill:rgb(55.29412%,52.549022%,47.843137%);fill-opacity:1;" d="M 240 40 C 130 40 40 130 40 240 C 40 350 130 440 240 440 C 350 440 440 350 440 240 C 440 130 350 40 240 40 Z M 240 400 C 152 400 80 328 80 240 C 80 152 152 80 240 80 C 328 80 400 152 400 240 C 400 328 328 400 240 400 Z M 240 400 "/>
</g>
</svg>
