<?xml version="1.0" encoding="UTF-8"?>
<svg xmlns="http://www.w3.org/2000/svg" xmlns:xlink="http://www.w3.org/1999/xlink" viewBox="0 0 480 480" width="480px" height="480px">
<g id="surface128315880">
<path style=" stroke:none;fill-rule:nonzero;fill:rgb(55.29412%,52.549022%,47.843137%);fill-opacity:1;" d="M 80 50 L 420 50 L 380 390 L 250 430 L 110 390 Z M 80 50 "/>
<path style=" stroke:none;fill-rule:nonzero;fill:rgb(55.29412%,52.549022%,47.843137%);fill-opacity:1;" d="M 386.300781 80 L 352.5 367.101562 L 250 398.601562 L 250 80 Z M 386.300781 80 "/>
<path style=" stroke:none;fill-rule:nonzero;fill:rgb(5.882353%,5.490196%,5.490196%);fill-opacity:1;" d="M 250 210 L 260 230 L 250 250 L 157.898438 250 L 166.398438 120 L 250 120 L 260 140 L 250 160 L 210.300781 160 L 207 210 Z M 250 210 "/>
<path style=" stroke:none;fill-rule:nonzero;fill:rgb(6.27451%,6.27451%,6.27451%);fill-opacity:1;" d="M 249 325.699219 L 250 325.398438 L 260 350 L 250 367.199219 L 249.398438 367.398438 L 166.101562 343.601562 L 160.5 280 L 200.699219 280 L 203.5 312.699219 Z M 249 325.699219 "/>
<path style=" stroke:none;fill-rule:nonzero;fill:rgb(9.019608%,9.019608%,9.019608%);fill-opacity:1;" d="M 340.699219 210 L 325 344.199219 L 250 367.199219 L 250 325.398438 L 288.300781 313.601562 L 295.699219 250 L 250 250 L 250 210 Z M 340.699219 210 "/>
<path style=" stroke:none;fill-rule:nonzero;fill:rgb(9.019608%,9.019608%,9.019608%);fill-opacity:1;" d="M 349.199219 180 L 309.300781 180 L 306.699219 160 L 250 160 L 250 120 L 341.300781 120 L 343 132.601562 Z M 349.199219 180 "/>
</g>
</svg>
