<?xml version="1.0" encoding="UTF-8"?>
<svg xmlns="http://www.w3.org/2000/svg" xmlns:xlink="http://www.w3.org/1999/xlink" viewBox="0 0 480 480" width="480px" height="480px">
<g id="surface128333942">
<path style=" stroke:none;fill-rule:nonzero;fill:rgb(55.686277%,52.941179%,47.843137%);fill-opacity:1;" d="M 398.667969 259.558594 C 383.289062 259.640625 369.96875 263.328125 358.808594 268.839844 C 354.730469 260.691406 350.589844 253.519531 349.898438 248.191406 C 349.089844 241.96875 348.148438 238.25 349.128906 230.839844 C 350.109375 223.429688 354.398438 212.929688 354.339844 212.140625 C 354.28125 211.351562 353.378906 207.578125 344.511719 207.511719 C 335.640625 207.449219 328.050781 209.21875 327.160156 211.558594 C 326.269531 213.898438 324.558594 219.167969 323.5 224.667969 C 321.949219 232.710938 305.789062 261.398438 296.621094 276.398438 C 293.621094 270.539062 291.070312 265.378906 290.539062 261.300781 C 289.730469 255.078125 288.789062 251.359375 289.769531 243.949219 C 290.75 236.539062 295.039062 226.039062 294.980469 225.25 C 294.917969 224.460938 294.019531 220.691406 285.148438 220.621094 C 276.28125 220.558594 268.691406 222.328125 267.800781 224.667969 C 266.910156 227.011719 265.949219 232.480469 264.140625 237.78125 C 262.320312 243.070312 240.851562 290.917969 235.21875 303.328125 C 232.351562 309.648438 229.859375 314.730469 228.101562 318.191406 C 228.089844 318.179688 228.089844 318.167969 228.089844 318.167969 C 228.089844 318.167969 227.980469 318.398438 227.800781 318.789062 C 226.289062 321.738281 225.398438 323.371094 225.398438 323.371094 C 225.398438 323.371094 225.410156 323.390625 225.429688 323.429688 C 224.230469 325.601562 222.949219 327.609375 222.320312 327.609375 C 221.878906 327.609375 220.988281 321.839844 222.511719 313.917969 C 225.710938 297.320312 233.378906 271.441406 233.308594 270.539062 C 233.269531 270.078125 234.738281 265.570312 228.300781 263.210938 C 222.039062 260.917969 219.808594 264.738281 219.238281 264.75 C 218.691406 264.761719 218.28125 266.101562 218.28125 266.101562 C 218.28125 266.101562 225.25 236.988281 204.980469 236.988281 C 192.300781 236.988281 174.738281 250.859375 166.089844 263.429688 C 160.628906 266.410156 148.941406 272.789062 136.550781 279.601562 C 131.789062 282.21875 126.929688 284.890625 122.320312 287.429688 C 122.011719 287.078125 121.691406 286.738281 121.371094 286.390625 C 96.78125 260.160156 51.339844 241.609375 53.261719 206.339844 C 53.960938 193.519531 58.421875 159.761719 140.589844 118.820312 C 207.898438 85.28125 261.789062 94.511719 271.101562 114.960938 C 284.398438 144.191406 242.300781 198.5 172.398438 206.339844 C 145.769531 209.328125 131.738281 199 128.25 195.160156 C 124.578125 191.109375 124.03125 190.929688 122.660156 191.691406 C 120.429688 192.929688 121.839844 196.5 122.660156 198.628906 C 124.75 204.058594 133.308594 213.691406 147.910156 218.488281 C 160.761719 222.710938 192.03125 225.019531 229.839844 210.390625 C 272.199219 194.011719 305.269531 148.429688 295.550781 110.339844 C 285.667969 71.601562 221.429688 58.859375 160.628906 80.460938 C 124.398438 93.320312 85.230469 113.5 57.058594 139.839844 C 23.570312 171.160156 18.230469 198.429688 20.429688 209.820312 C 28.25 250.300781 84.039062 276.660156 106.378906 296.191406 C 105.28125 296.800781 104.238281 297.371094 103.300781 297.890625 C 92.101562 303.429688 49.570312 325.691406 38.929688 349.199219 C 26.859375 375.871094 40.851562 395.007812 50.109375 397.589844 C 78.800781 405.570312 108.238281 391.210938 124.070312 367.609375 C 139.890625 344.019531 137.960938 313.289062 130.699219 299.269531 C 130.609375 299.101562 130.511719 298.929688 130.421875 298.75 C 133.308594 297.039062 136.261719 295.300781 139.179688 293.578125 C 144.878906 290.230469 150.480469 287.109375 155.328125 284.46875 C 152.609375 291.910156 150.621094 300.839844 149.589844 313.730469 C 148.371094 328.871094 154.578125 348.441406 162.699219 356.140625 C 166.28125 359.53125 170.578125 359.609375 173.300781 359.609375 C 182.75 359.609375 187.058594 351.75 191.808594 342.449219 C 197.628906 331.050781 202.800781 317.769531 202.800781 317.769531 C 202.800781 317.769531 196.320312 353.628906 213.980469 353.628906 C 220.417969 353.628906 226.890625 345.28125 229.78125 341.03125 C 229.789062 341.078125 229.789062 341.101562 229.789062 341.101562 C 229.789062 341.101562 229.960938 340.820312 230.289062 340.269531 C 230.960938 339.25 231.339844 338.601562 231.339844 338.601562 C 231.339844 338.601562 231.351562 338.53125 231.371094 338.410156 C 233.960938 333.917969 239.699219 323.679688 248.300781 306.789062 C 259.417969 284.96875 270.078125 257.628906 270.078125 257.628906 C 270.078125 257.628906 271.070312 264.308594 274.320312 275.371094 C 276.230469 281.871094 280.289062 289.058594 283.5 295.960938 C 280.917969 299.539062 279.339844 301.589844 279.339844 301.589844 C 279.339844 301.589844 279.351562 301.628906 279.378906 301.699219 C 277.320312 304.441406 275.011719 307.390625 272.589844 310.269531 C 263.808594 320.71875 253.359375 332.660156 251.960938 336.101562 C 250.308594 340.160156 250.699219 343.140625 253.890625 345.550781 C 256.21875 347.300781 260.359375 347.578125 264.691406 347.289062 C 272.578125 346.761719 278.121094 344.800781 280.859375 343.609375 C 285.128906 342.101562 290.101562 339.730469 294.761719 336.300781 C 303.371094 329.96875 308.558594 320.917969 308.058594 308.917969 C 307.78125 302.308594 305.679688 295.761719 303.011719 289.578125 C 303.789062 288.460938 304.570312 287.320312 305.359375 286.179688 C 318.929688 266.339844 329.460938 244.539062 329.460938 244.539062 C 329.460938 244.539062 330.449219 251.21875 333.699219 262.28125 C 335.339844 267.871094 338.589844 273.980469 341.511719 279.960938 C 328.75 290.328125 320.839844 302.378906 318.089844 310.28125 C 313.011719 324.898438 316.988281 331.519531 324.449219 333.03125 C 327.828125 333.710938 332.609375 332.160156 336.199219 330.640625 C 340.667969 329.160156 346.039062 326.691406 351.058594 323 C 359.667969 316.667969 367.949219 307.808594 367.449219 295.820312 C 367.21875 290.359375 365.738281 284.941406 363.730469 279.738281 C 374.550781 275.230469 388.550781 272.730469 406.390625 274.808594 C 444.660156 279.28125 452.160156 303.167969 450.730469 313.167969 C 449.289062 323.167969 441.269531 328.667969 438.578125 330.328125 C 435.898438 331.988281 435.078125 332.570312 435.300781 333.800781 C 435.628906 335.589844 436.871094 335.53125 439.160156 335.140625 C 442.308594 334.609375 459.25 327.011719 459.980469 308.550781 C 460.890625 285.089844 438.441406 259.351562 398.667969 259.558594 Z M 103.699219 359 C 91.019531 372.828125 73.320312 378.050781 65.71875 373.648438 C 57.519531 368.898438 60.769531 348.539062 76.320312 333.859375 C 85.800781 324.917969 98.039062 316.679688 106.160156 311.609375 C 108.011719 310.5 110.71875 308.871094 114.019531 306.890625 C 114.570312 306.578125 114.878906 306.410156 114.878906 306.410156 L 114.871094 306.390625 C 115.511719 306.011719 116.160156 305.621094 116.828125 305.210938 C 122.5 326.101562 117.011719 344.488281 103.699219 359 Z M 196.050781 296.230469 C 191.640625 306.988281 182.398438 334.53125 176.769531 333.050781 C 171.941406 331.78125 169 310.851562 175.808594 290.25 C 179.230469 279.878906 186.550781 267.488281 190.851562 262.679688 C 197.769531 254.941406 205.390625 252.410156 207.238281 255.550781 C 209.589844 259.550781 198.820312 289.480469 196.050781 296.230469 Z M 272.339844 332.628906 C 270.46875 333.609375 268.75 334.21875 267.960938 333.75 C 267.371094 333.398438 268.730469 332.109375 268.730469 332.109375 C 268.730469 332.109375 278.269531 321.839844 282.03125 317.167969 C 284.21875 314.449219 286.75 311.21875 289.511719 307.621094 C 289.53125 307.980469 289.539062 308.339844 289.539062 308.691406 C 289.519531 320.988281 277.640625 329.289062 272.339844 332.628906 Z M 331.109375 319.230469 C 329.710938 318.238281 329.949219 315.03125 334.539062 305.019531 C 336.339844 301.089844 340.460938 294.480469 347.601562 288.160156 C 348.429688 290.761719 348.929688 293.25 348.917969 295.570312 C 348.828125 311.050781 337.789062 316.828125 331.109375 319.230469 Z M 331.109375 319.230469 "/>
</g>
</svg>
